<svg xmlns="http://www.w3.org/2000/svg" viewBox="0 0 232 218"><defs><style>.cls-1{isolation:isolate;}.cls-2{fill:#dbd4d1;}.cls-3{font-size:6.57px;fill:#1d1d1b;font-family:MyriadPro-Bold, Myriad Pro;font-weight:700;}.cls-4{fill:#001922;mix-blend-mode:overlay;}.cls-5{fill:#fff;}.cls-6{fill:#333334;}</style></defs><g class="cls-1"><g id="Capa_1" data-name="Capa 1"><path class="cls-2" d="M176.58,102.4c0,34.54-28.25,62.47-64.35,62.47s-65.36-26.7-65.36-61.23,23-66.16,65.22-65.58C148.18,38.55,176.58,67.87,176.58,102.4Z"/><path d="M112.62,35.49q29.64.34,49.49,22.11A61.62,61.62,0,0,1,178,91.45c3,22.33-4,41.3-20.28,57.07-8.06,7.83-17.29,13.77-28.21,16.71-24.35,6.56-46.05,1.49-64.59-15.5a61.18,61.18,0,0,1-19.14-34.62c-3.82-20.5,1.11-38.87,14.73-54.85A69.87,69.87,0,0,1,85.05,41.39,64,64,0,0,1,112.62,35.49Zm63,66.26c-.27-2.49-.48-6.21-1.12-9.85-3-16.86-11.37-30.62-25.35-40.66C131,38.18,110.93,35.17,89.52,42.1c-10.66,3.45-19.93,9.24-27,17.89-12,14.57-16.77,31.3-14.11,49.88a61.42,61.42,0,0,0,23,40.31c16.48,13.24,35.31,17.44,56,12.93a59.36,59.36,0,0,0,29.48-15.69C169.31,135.22,175.18,120.16,175.66,101.75ZM94.77,39.08c24-4.62,45.4.54,62.76,18s22.3,38.59,17.18,62.27a63.07,63.07,0,0,0-20.42-67.73C136.73,37.28,116.68,33.56,94.77,39.08ZM128,164.48c-23.91,4.44-45.14-.75-62.4-18.09s-22.14-38.46-17.34-62c-6.16,24-1.47,45.65,16.4,63.42C82.27,165.37,103.85,170.25,128,164.48Z"/><text class="cls-3" transform="translate(88.79 145.96) rotate(27.6) scale(1.29 1.1)">T</text><text class="cls-3" transform="translate(93.35 148.33) rotate(22.48) scale(1.29 1.1)">I</text><text class="cls-3" transform="translate(95.96 149.51) rotate(17.48) scale(1.29 1.1)">E</text><text class="cls-3" transform="translate(100.75 151.13) rotate(10.13) scale(1.29 1.1)">N</text><text class="cls-3" transform="translate(107.04 152.32) rotate(1.96) scale(1.29 1.1)">D</text><text class="cls-3" transform="translate(113.49 152.59) rotate(-5.96) scale(1.29 1.1)">A</text><text class="cls-3" transform="translate(119.49 151.92) rotate(-11.22) scale(1.29 1.1)"> </text><text class="cls-3" transform="matrix(1.24, -0.36, 0.3, 1.06, 121.66, 151.6)">P</text><text class="cls-3" transform="translate(126.88 150.14) rotate(-22.79) scale(1.29 1.1)">E</text><text class="cls-3" transform="translate(131.53 148.25) rotate(-29.25) scale(1.29 1.1)">T</text><path class="cls-4" d="M153.46,78.44c-4.59-3.33-11.14-2.43-16.86,1.75a29.54,29.54,0,0,0,1.58-5.62c2-11.3-2.65-21.26-10.63-22.68-7-1.24-13.85,4.54-16.79,13.59-3-9.05-9.82-14.83-16.8-13.59-4,.72-7.45,3.76-9.37,8.35a26,26,0,0,0-1.26,14.34,29,29,0,0,0,1.59,5.61C79.2,76,72.65,75.12,68.06,78.46c-6.29,4.57-6.16,15.12.3,24a24.83,24.83,0,0,0,10.72,8.62,14.74,14.74,0,0,0,6.85,1c-6,6.55-8.68,13.43-7.24,19.21a11.7,11.7,0,0,0,8.53,8.59c5.47,1.51,10.22-1,14.42-3.16,3.1-1.62,6-3.14,9-3.09h.24c3,0,5.88,1.47,9,3.09,4.11,2.14,8.74,4.55,14,3.25l.37-.1a11.7,11.7,0,0,0,8.53-8.59c1.43-5.77-1.2-12.65-7.24-19.2a13.55,13.55,0,0,0,4.75-.34c4.54-1.12,9.22-4.35,12.81-9.29C159.62,93.56,159.75,83,153.46,78.44Z"/><path class="cls-5" d="M155,75.93c-4.59-3.34-11.14-2.43-16.86,1.74a29.34,29.34,0,0,0,1.59-5.62c2-11.3-2.66-21.26-10.63-22.68-7-1.24-13.85,4.54-16.8,13.59-3-9.05-9.82-14.83-16.8-13.58-4,.72-7.44,3.76-9.36,8.34a25.91,25.91,0,0,0-1.27,14.34,29.34,29.34,0,0,0,1.59,5.62c-5.72-4.17-12.27-5.08-16.86-1.74-6.29,4.58-6.16,15.12.31,24a24.6,24.6,0,0,0,10.71,8.62,14.63,14.63,0,0,0,6.86,1c-6,6.55-8.68,13.44-7.25,19.21a11.73,11.73,0,0,0,8.54,8.59c5.46,1.51,10.22-1,14.41-3.15,3.1-1.62,6-3.15,9-3.09h.24c2.95-.06,5.88,1.47,9,3.08,4.1,2.14,8.74,4.56,14,3.25l.36-.1a11.72,11.72,0,0,0,8.54-8.59c1.43-5.77-1.21-12.65-7.25-19.19a13.87,13.87,0,0,0,4.76-.35c4.53-1.11,9.21-4.35,12.8-9.29C161.14,91.05,161.27,80.5,155,75.93Z"/><path class="cls-6" d="M112.28,92.68c-9.44.25-11.62,9.09-20.15,17.14-12.51,11.8-10.12,22-2.45,24.16s14.2-6.53,22.53-6.37h.16c8.32-.17,14.85,8.49,22.53,6.36s10.06-12.35-2.46-24.16C123.91,101.77,121.73,92.93,112.28,92.68Z"/><ellipse class="cls-6" cx="81.11" cy="91.78" rx="10.37" ry="16.08" transform="translate(-38.47 65.28) rotate(-36.04)"/><path class="cls-6" d="M135.08,85.67c-5.23,7.19-5.71,15.74-1.08,19.11s12.62.27,17.84-6.91,5.71-15.74,1.08-19.1S140.3,78.49,135.08,85.67Z"/><ellipse class="cls-6" cx="99.07" cy="69.53" rx="10.93" ry="16.96" transform="translate(-10.66 18.46) rotate(-10.11)"/><path class="cls-6" d="M114.73,67.61c-1.64,9.22,1.84,17.55,7.79,18.61s12.09-5.56,13.73-14.78-1.85-17.56-7.79-18.61S116.37,58.39,114.73,67.61Z"/><path class="cls-5" d="M114.52,120.25a2.75,2.75,0,0,1-2.86,2.74,2.61,2.61,0,0,1-2.63-2.71,2.75,2.75,0,0,1,2.8-2.8A2.66,2.66,0,0,1,114.52,120.25Zm-.56,0c0-.09,0-.22,0-.35a2.34,2.34,0,0,0-2.51-2.11,2.39,2.39,0,0,0-1.86,2.26,2.66,2.66,0,0,0,1.72,2.56A2.23,2.23,0,0,0,114,120.26Z"/><path class="cls-5" d="M118.05,120.2l1.86,2.69a1,1,0,0,1-1-.5c-.42-.63-.83-1.27-1.27-1.89a1.11,1.11,0,0,0-.51-.33,7.51,7.51,0,0,0,.13,2.72h-.89a18.88,18.88,0,0,0,0-5.36c.64,0,1.25,0,1.85.1s1.07.45,1.13,1a1.28,1.28,0,0,1-.94,1.45Zm-1-.33c.59,0,1.16.11,1.51-.45a1,1,0,0,0,0-1.1c-.37-.51-.94-.46-1.52-.47Z"/><path class="cls-5" d="M124.63,117.58v.61c-.44-.38-.86-.44-2.2-.3v2c.94.14,1.41.09,1.8-.22v.64l-1.81-.11v2.46a17.16,17.16,0,0,0,1.76,0c.22,0,.43-.26.63-.4v.69h-3.16a16.53,16.53,0,0,0,0-5.3Z"/><path class="cls-5" d="M102.24,117.68v.76a1.31,1.31,0,0,0-1.63-.61.87.87,0,0,0-.7.78.8.8,0,0,0,.46.93c.36.18.74.33,1.11.48,1,.43,1.39,1.07,1.14,1.91a1.78,1.78,0,0,1-2,1c-.38-.06-.75-.18-1.15-.27V122a3.42,3.42,0,0,0,.8.58,2.15,2.15,0,0,0,1,0,1,1,0,0,0,.79-.94.93.93,0,0,0-.57-1c-.36-.18-.74-.33-1.11-.49-.89-.37-1.25-.94-1-1.66a1.59,1.59,0,0,1,1.78-1C101.5,117.53,101.85,117.61,102.24,117.68Z"/><path class="cls-5" d="M105.2,112.52v.16a2.46,2.46,0,0,1,0,.28l-1.83-.11v2.45c.63,0,1.25,0,1.87,0,.19,0,.35-.28.54-.44v.74h-3.16a16.89,16.89,0,0,0,0-5.31h2.95v.62c-.66-.63-1.45-.2-2.19-.37v2.09Z"/><path class="cls-5" d="M117.28,115.6h-.54l2.07-5.4,2,5.38H120a1.81,1.81,0,0,0,0-.52c-.17-.52-.36-1-.58-1.54a.53.53,0,0,0-.38-.25c-1.1-.07-1.1-.06-1.48,1-.09.26-.2.51-.27.78A2.46,2.46,0,0,0,117.28,115.6Zm2-2.64-.61-1.67-.59,1.67Z"/><path class="cls-5" d="M113,112.59c.61-.09,1.25.22,1.81-.27V113l-1.85-.11a10.79,10.79,0,0,0,.16,2.74h-.85a4.7,4.7,0,0,0,.14-.73q0-1.92,0-3.84a6.37,6.37,0,0,0-.13-.74h2.91v.6c-.65-.64-1.44-.18-2.19-.36Z"/><path class="cls-5" d="M95.82,115.68l-2-5.39h.81a1.68,1.68,0,0,0,0,.55c.41,1.14.84,2.27,1.26,3.41a.72.72,0,0,0,.13.14c.46-1.25.91-2.47,1.35-3.7,0-.11,0-.26,0-.41h.53Z"/><path class="cls-5" d="M104.07,118.35v-.77h3.58v.74c-.38-.5-.49-.53-1.51-.41a46.11,46.11,0,0,0,.11,5h-.85a2.28,2.28,0,0,0,.16-.53c0-1.47,0-2.94,0-4.41C104.82,117.73,104.45,117.82,104.07,118.35Z"/><path class="cls-5" d="M107.56,115.57a4.12,4.12,0,0,0,.13-.74c0-1.25,0-2.5,0-3.75a4.81,4.81,0,0,0-.14-.8h.77c-.15,1.65,0,3.32-.07,5a14.39,14.39,0,0,0,1.75,0c.25,0,.46-.31.68-.47v.76Z"/><path class="cls-5" d="M129.13,115.59h-.76a6.32,6.32,0,0,0,.13-1c0-1.33,0-2.65,0-4-.77-.24-1.17-.14-1.52.41v-.79h3.57V111c-.36-.5-.47-.53-1.53-.43C129.09,112.25,128.93,113.92,129.13,115.59Z"/><path class="cls-5" d="M122.76,110.27h.76a9.58,9.58,0,0,0-.13,1.06c0,1.14,0,2.27,0,3.41v.56a15.12,15.12,0,0,0,1.79,0c.23,0,.44-.3.65-.45v.74h-3.06A32.35,32.35,0,0,0,122.76,110.27Z"/><path class="cls-5" d="M100.61,115.59H99.7a15.52,15.52,0,0,0,0-5.31h.91a5.26,5.26,0,0,0-.12.78c0,1.27,0,2.53,0,3.79A4.75,4.75,0,0,0,100.61,115.59Z"/></g></g></svg>